<svg xmlns="http://www.w3.org/2000/svg" height="20" viewBox="0 96 960 960" width="20"><path d="m424 885-62-56Q250 728 165 632.812 80 537.624 80 423q0-94 63.692-158 63.693-64 158.726-64Q356 201 402 223.5q46 22.5 78 57.5 31-35 77-57.5t99.777-22.5q95.377 0 159.3 64Q880 329 880 423q0 115-86.5 211T589 837l-53 48q-24 22-56 21.5T424 885Zm16-523q-17-28-54.5-52.5T302 285q-60 0-99 39t-39 99q0 52 36.582 109.211 36.582 57.212 87.5 111Q339 697 392.5 743.5 446 790 480 822q33-30 86.729-77.534 53.729-47.534 104.5-102T759 530.885Q796 473.769 796 423q0-60-39.572-99t-98.931-39Q611 285 575 309.5T521 362q-7 11-17.968 17-10.967 6-23.032 6-11 0-22-6t-18-17Zm40 191Z"/></svg>