<svg xmlns="http://www.w3.org/2000/svg" height="20" width="20"><path d="M14.5 18q-1.042 0-1.771-.729Q12 16.542 12 15.5q0-.167.021-.302.021-.136.062-.302l-4.958-3.021q-.313.333-.74.479-.427.146-.885.146-1.042 0-1.771-.729Q3 11.042 3 10q0-1.042.729-1.771Q4.458 7.5 5.5 7.5q.458 0 .885.156t.74.469l4.958-3.021q-.041-.166-.062-.302Q12 4.667 12 4.5q0-1.042.729-1.771Q13.458 2 14.5 2q1.042 0 1.771.729Q17 3.458 17 4.5q0 1.042-.729 1.771Q15.542 7 14.5 7q-.458 0-.885-.146t-.74-.479L7.917 9.396q.041.166.062.302Q8 9.833 8 10q0 .167-.021.302-.021.136-.062.302l4.958 3.021q.313-.354.74-.49.427-.135.885-.135 1.042 0 1.771.729.729.729.729 1.771 0 1.042-.729 1.771Q15.542 18 14.5 18Zm0-12.5q.417 0 .708-.292.292-.291.292-.708t-.292-.708Q14.917 3.5 14.5 3.5t-.708.292q-.292.291-.292.708t.292.708q.291.292.708.292Zm-9 5.5q.417 0 .708-.292.292-.291.292-.708t-.292-.708Q5.917 9 5.5 9t-.708.292Q4.5 9.583 4.5 10t.292.708Q5.083 11 5.5 11Zm9 5.5q.417 0 .708-.292.292-.291.292-.708t-.292-.708q-.291-.292-.708-.292t-.708.292q-.292.291-.292.708t.292.708q.291.292.708.292Zm0-12Zm-9 5.5Zm9 5.5Z"/></svg>